# xmcd
#
# Track frame offsets:
#	150
#	18696
#	37006
#	55201
#	73180
#	90225
#	108075
#	127965
#	150921
#	168823
#	187596
#	203148
#
# Disc length: 2957 seconds
#
# Revision: 3
# Processed by: cddbd v1.5.2PL0 Copyright (c) Steve Scherf et al.
# Submitted via: EasyCDDAExtractor 15.3.0.1
#
DISCID=8b0b8b0c
DTITLE=Varios Artistas - 2004 Año De Exitos Pop
DYEAR=2003
DGENRE=Latin
TTITLE0=Enrique Iglesias - Para Que La Vida
TTITLE1=Juanes With Nelly Furtado - Fotografia
TTITLE2=David Bisbal - Llorare Las Penas
TTITLE3=Bacilos - Mi Primer Millon
TTITLE4=Paulina Rubio - Baila Casanova
TTITLE5=Alexandre Pires - Todavia
TTITLE6=Luis Fonsi - Quisiera Poder Olvidarme De Ti
TTITLE7=Tiziano Ferro - Alucinado
TTITLE8=Jose Feliciano - Lo Que Yo Tuve Contigo
TTITLE9=Emmanuel - Guajira
TTITLE10=La Factoria - Todavia
TTITLE11=Soraya - Casi
EXTD=
EXTT0=
EXTT1=
EXTT2=
EXTT3=
EXTT4=
EXTT5=
EXTT6=
EXTT7=
EXTT8=
EXTT9=
EXTT10=
EXTT11=
PLAYORDER=
